<?xml version="1.0" standalone="no"?>
<!DOCTYPE svg PUBLIC "-//W3C//DTD SVG 20010904//EN"
 "http://www.w3.org/TR/2001/REC-SVG-20010904/DTD/svg10.dtd">
<svg version="1.0" xmlns="http://www.w3.org/2000/svg"
 width="1024.000000pt" height="1024.000000pt" viewBox="0 0 1024.000000 1024.000000"
 preserveAspectRatio="xMidYMid meet">
<metadata>
Created by potrace 1.14, written by Peter Selinger 2001-2017
</metadata>
<g transform="translate(0.000000,1024.000000) scale(0.100000,-0.100000)"
fill="#000000" stroke="none">
<path d="M4437 10203 c-3 -3 -21 -7 -39 -9 -48 -5 -75 -11 -132 -31 -28 -9
-53 -17 -56 -18 -20 -3 -145 -75 -195 -113 -81 -61 -98 -78 -148 -142 -23 -30
-45 -57 -48 -60 -3 -3 -21 -32 -40 -65 -19 -33 -38 -68 -44 -77 -5 -9 -17 -29
-26 -45 -8 -15 -66 -115 -127 -220 -62 -106 -112 -196 -112 -200 0 -3 -6 -14
-14 -22 -7 -9 -26 -41 -42 -71 -16 -30 -32 -57 -35 -60 -3 -3 -17 -25 -30 -50
-29 -51 -26 -46 -181 -315 -64 -110 -125 -216 -137 -235 -11 -19 -24 -42 -28
-50 -4 -8 -24 -43 -45 -78 -21 -34 -38 -65 -38 -68 0 -3 -8 -18 -18 -32 -11
-15 -36 -58 -57 -97 -21 -38 -48 -86 -61 -105 -13 -19 -24 -40 -24 -46 0 -7
-4 -14 -8 -16 -4 -1 -26 -34 -47 -73 -22 -38 -44 -78 -50 -87 -5 -9 -17 -29
-26 -45 -29 -51 -247 -429 -293 -508 -26 -42 -46 -79 -46 -82 0 -3 -8 -17 -18
-31 -11 -15 -32 -52 -49 -82 -17 -30 -60 -106 -97 -168 -36 -62 -66 -116 -66
-119 0 -2 -8 -17 -19 -31 -10 -15 -29 -47 -43 -72 -14 -25 -42 -74 -62 -108
-20 -35 -36 -68 -36 -73 0 -5 -4 -9 -10 -9 -5 0 -10 -5 -10 -10 0 -6 -11 -27
-24 -48 -13 -20 -79 -134 -146 -252 -68 -118 -140 -243 -162 -277 -21 -34 -38
-64 -38 -66 0 -2 -55 -98 -122 -213 -66 -115 -130 -225 -140 -244 -11 -19 -27
-48 -36 -65 -10 -16 -32 -54 -50 -83 -17 -29 -32 -54 -32 -57 0 -3 -17 -33
-38 -67 -21 -35 -50 -83 -64 -108 -14 -25 -42 -74 -63 -110 -79 -137 -78 -136
-153 -290 -43 -88 -80 -189 -91 -250 -3 -19 -6 -121 -6 -227 0 -184 1 -193 22
-214 18 -18 34 -22 94 -24 l73 -2 53 -69 c30 -38 73 -87 96 -108 23 -22 47
-49 53 -60 6 -12 19 -34 28 -51 l16 -30 -196 -5 -196 -5 -24 -28 -25 -29 4
-1406 c1 -774 5 -1416 9 -1427 33 -105 51 -156 59 -161 5 -3 9 -12 9 -20 0 -8
20 -45 45 -83 123 -186 323 -322 530 -359 44 -8 5527 -9 5587 -1 20 2 40 8 44
12 4 4 15 7 25 7 18 0 30 5 134 50 77 34 154 91 231 171 122 127 195 281 220
464 1 11 3 365 3 786 l1 766 23 11 c12 6 40 23 62 36 22 14 67 39 100 57 33
17 67 36 75 43 8 6 24 16 35 22 11 6 124 71 250 144 127 73 250 144 275 158
54 30 109 62 135 80 11 6 27 15 35 19 8 4 43 24 78 45 34 21 64 38 66 38 8 0
384 224 416 248 63 47 161 152 206 222 42 66 99 192 108 241 3 13 5 24 6 24 1
0 3 9 6 20 23 109 23 272 -2 375 -3 14 -7 32 -8 40 -1 8 -8 25 -14 38 -7 12
-10 22 -6 22 3 0 1 7 -6 15 -7 8 -10 15 -6 15 9 0 -60 126 -224 410 -81 140
-157 271 -168 290 -18 33 -33 58 -128 223 -20 34 -47 80 -59 102 -13 22 -62
108 -110 190 -48 83 -101 175 -118 205 -16 30 -36 62 -43 71 -8 8 -14 18 -14
22 0 4 -20 41 -45 83 -25 41 -45 77 -45 79 0 2 -22 40 -50 85 -27 45 -50 83
-50 85 0 2 -56 100 -125 218 l-125 215 31 59 c17 32 36 64 41 71 12 14 52 85
71 122 6 14 14 27 18 30 5 5 35 58 85 150 11 19 22 37 27 38 4 2 7 8 7 12 0 5
16 35 35 67 37 61 96 194 101 228 2 11 8 38 14 60 14 53 21 251 10 301 -5 21
-11 50 -13 64 -32 178 -146 360 -310 493 -36 30 -262 170 -307 190 -8 4 -33
18 -55 32 -22 13 -62 36 -88 50 -27 14 -76 43 -110 64 -61 37 -140 82 -207
117 -19 11 -37 22 -40 25 -4 5 -286 167 -410 237 -25 13 -49 28 -55 32 -5 4
-30 19 -55 32 -25 14 -202 117 -395 228 -192 111 -370 214 -395 228 -25 14
-57 32 -72 41 -141 83 -280 161 -288 161 -5 0 -10 4 -10 9 0 5 -12 14 -27 21
-16 6 -48 22 -73 35 -84 43 -102 28 -224 -186 -55 -96 -119 -207 -143 -246
-24 -40 -43 -75 -43 -79 0 -3 -8 -18 -19 -32 -10 -15 -30 -48 -45 -74 -14 -27
-38 -69 -52 -95 -15 -27 -35 -60 -45 -75 -11 -14 -19 -28 -19 -31 0 -3 -51
-92 -113 -199 -62 -106 -116 -200 -120 -208 -4 -8 -13 -24 -20 -35 -7 -11 -30
-51 -52 -90 -21 -38 -55 -97 -75 -130 -20 -33 -49 -81 -63 -107 -15 -27 -39
-69 -54 -95 -14 -27 -71 -123 -125 -215 -54 -92 -98 -170 -98 -172 0 -3 -25
-45 -55 -95 -30 -50 -55 -93 -55 -96 0 -2 -15 -28 -33 -57 -19 -29 -37 -60
-41 -68 -4 -8 -12 -24 -19 -35 -7 -11 -30 -51 -52 -90 -22 -38 -45 -79 -52
-90 -7 -11 -17 -29 -23 -40 -6 -11 -23 -41 -38 -66 -23 -38 -214 -369 -247
-426 -54 -97 -92 -162 -105 -184 -8 -14 -35 -60 -59 -102 -25 -42 -55 -81 -70
-89 -14 -7 -87 -48 -161 -92 -74 -43 -164 -95 -200 -116 -36 -21 -99 -57 -140
-81 -41 -24 -84 -48 -94 -52 -18 -7 -18 -6 -5 10 8 10 19 27 25 38 12 21 165
288 258 447 31 53 56 101 56 107 0 5 3 11 8 13 9 4 142 234 142 247 0 5 4 11
8 13 4 2 19 23 33 48 14 25 35 61 46 80 11 19 64 112 118 205 133 233 136 236
154 267 16 27 152 262 189 328 11 19 44 76 73 125 29 50 60 104 69 120 9 17
23 41 32 55 49 79 358 621 358 629 0 6 4 11 9 11 5 0 11 8 14 18 6 16 42 80
73 129 7 12 23 38 34 57 11 20 28 51 39 69 10 17 53 93 96 167 43 74 118 203
166 287 49 84 89 157 89 163 0 5 5 10 10 10 6 0 10 4 10 10 0 5 25 50 55 100
30 50 55 92 55 94 0 3 22 42 49 87 51 87 61 138 31 174 -12 15 -138 92 -256
156 -59 33 -171 75 -224 84 -19 3 -38 9 -43 12 -12 8 -243 14 -250 6z m1957
-3790 c-14 -27 -33 -61 -43 -78 -10 -16 -27 -46 -38 -65 -190 -330 -247 -427
-256 -437 -10 -10 -83 -53 -225 -134 -42 -24 -49 -24 -87 5 -68 52 -87 143
-48 228 61 132 88 164 186 219 51 29 94 55 97 59 3 3 21 14 40 23 19 10 44 23
55 30 38 23 91 54 150 87 33 18 87 50 120 71 33 20 63 38 68 38 4 1 -4 -20
-19 -46z m1283 -2090 c100 -76 84 -251 -29 -307 -17 -9 -33 -15 -34 -13 -2 1
-4 70 -5 152 0 82 -5 159 -9 171 -5 12 -6 24 -4 27 9 9 48 -6 81 -30z m-5479
-442 c2 -1 -10 -25 -27 -53 -16 -29 -36 -64 -43 -78 -7 -14 -35 -62 -62 -107
l-48 -83 -209 0 c-215 0 -227 2 -195 39 8 9 26 39 40 67 15 29 35 58 44 66 21
18 224 136 251 146 15 5 234 8 249 3z m5222 2 c0 -2 -27 -17 -61 -35 -72 -39
-100 -55 -154 -87 -69 -41 -207 -121 -275 -159 -25 -13 -50 -29 -56 -34 -6 -4
-104 -7 -217 -6 l-206 3 74 129 c41 71 75 132 75 137 0 4 21 18 48 31 47 23
50 23 409 23 200 0 363 -1 363 -2z m-1197 -2414 c-25 -42 -76 -72 -132 -76
l-46 -4 30 17 c17 9 32 20 35 24 3 4 15 10 27 14 13 4 29 13 36 19 17 16 50
36 60 36 5 1 0 -13 -10 -30z"/>
</g>
</svg>
